<?xml version="1.0" standalone="no"?>
<!DOCTYPE svg PUBLIC "-//W3C//DTD SVG 20010904//EN"
 "http://www.w3.org/TR/2001/REC-SVG-20010904/DTD/svg10.dtd">
<svg version="1.0" xmlns="http://www.w3.org/2000/svg"
 width="512.000000pt" height="512.000000pt" viewBox="0 0 512.000000 512.000000"
 preserveAspectRatio="xMidYMid meet">

<g transform="translate(0.000000,512.000000) scale(0.100000,-0.100000)" stroke="none">
<path d="M1875 4111 c-40 -17 -63 -59 -109 -196 -25 -77 -46 -143 -46 -148 0
-4 234 -7 520 -7 286 0 520 3 520 7 0 5 -21 71 -46 148 -34 101 -54 148 -75
170 l-29 30 -358 2 c-196 1 -366 -2 -377 -6z"/>
<path d="M1195 3626 c-96 -30 -181 -99 -221 -176 -9 -19 -70 -163 -135 -320
l-117 -285 -254 -5 c-221 -4 -258 -7 -291 -24 -49 -24 -110 -95 -125 -144 -17
-56 -17 -809 0 -866 16 -55 99 -138 154 -154 25 -7 105 -12 201 -12 l160 0 -4
88 c-20 362 274 672 637 672 363 0 657 -310 637 -672 l-4 -88 807 0 807 0 -4
88 c-20 362 274 672 637 672 364 0 657 -310 637 -674 l-5 -89 50 6 c118 14
233 100 285 211 l28 61 0 347 0 346 -25 27 c-14 15 -34 31 -46 35 -11 5 -230
45 -485 90 l-464 82 -385 382 c-342 340 -390 385 -434 399 -45 15 -144 17
-1025 16 -759 0 -985 -3 -1016 -13z m138 -264 l32 -32 0 -210 0 -210 -33 -32
-32 -33 -170 -3 c-181 -4 -205 1 -216 43 -7 29 156 436 190 474 31 34 54 41
129 38 61 -2 70 -6 100 -35z m1029 0 l33 -32 0 -210 0 -210 -33 -32 -32 -33
-345 0 -345 0 -32 33 -33 32 0 209 0 209 25 27 c14 15 34 31 45 36 11 4 170 7
352 6 l333 -2 32 -33z m943 18 c17 -10 130 -117 253 -237 233 -229 243 -242
202 -283 -20 -20 -30 -20 -555 -18 l-535 3 -32 33 -33 32 0 209 0 209 25 27
c14 15 34 31 45 35 11 5 151 9 310 9 271 1 292 0 320 -19z m-343 -778 c28 -28
33 -39 33 -82 0 -43 -5 -54 -33 -82 l-32 -33 -130 0 -130 0 -32 33 c-28 28
-33 39 -33 81 0 39 5 55 25 76 38 41 55 45 182 42 l118 -2 32 -33z"/>
<path d="M1076 2264 c-182 -44 -337 -201 -381 -385 -88 -373 251 -712 624
-624 187 44 342 199 386 386 41 176 -10 355 -140 484 -130 130 -312 182 -489
139z m214 -240 c75 -22 149 -98 174 -178 88 -280 -253 -487 -461 -280 -111
111 -111 277 2 389 78 79 174 102 285 69z"/>
<path d="M3956 2264 c-182 -44 -337 -201 -381 -385 -88 -373 251 -712 624
-624 276 66 451 348 386 624 -66 277 -351 452 -629 385z m214 -240 c75 -22
149 -98 174 -178 88 -280 -253 -487 -461 -280 -111 111 -111 277 2 389 78 79
174 102 285 69z"/>
</g>
</svg>
