<?xml version="1.0" encoding="UTF-8"?>
<!DOCTYPE svg PUBLIC "-//W3C//DTD SVG 1.1//EN" "http://www.w3.org/Graphics/SVG/1.1/DTD/svg11.dtd">
<!-- Creator: CorelDRAW 2020 (64-Bit) -->
<svg xmlns="http://www.w3.org/2000/svg" xml:space="preserve" width="2702px" height="741px" version="1.1" shape-rendering="geometricPrecision" text-rendering="geometricPrecision" image-rendering="optimizeQuality" fill-rule="evenodd" clip-rule="evenodd"
viewBox="0 0 2702 741.05"
 xmlns:xlink="http://www.w3.org/1999/xlink"
 xmlns:xodm="http://www.corel.com/coreldraw/odm/2003">
 <defs>
   <clipPath id="id0">
    <path d="M-0.09 0.5l2702 0 0 741.05 -2702 0 0 -741.05z"/>
   </clipPath>
 </defs>
 <g id="Capa_x0020_1">
  <metadata id="CorelCorpID_0Corel-Layer"/>
  <g>
  </g>
  <g clip-path="url(#id0)">
   <g>
    <path id="Llimphuy"  fill-rule="nonzero" stroke="#373435" stroke-width="0.9" stroke-miterlimit="22.9256" d="M716.53 327.1l73.35 0 0 261.92 58.07 0 0 78.86 -131.42 0 0 -340.78zm180.98 0l73.36 0 0 261.92 58.07 0 0 78.86 -131.43 0 0 -340.78zm183.63 0l73.35 0 0 340.78 -73.35 0 0 -340.78zm168.43 0l92.68 0c13.22,73.54 23.63,136.71 31.23,189.69l8.01 -52.89c3.22,-20.56 6.69,-40.69 10.41,-60.21l14.29 -76.59 94.58 0 36.84 340.78 -72.61 0 -19.66 -234.39 -45.26 234.39 -49.57 0 -47.41 -234.83 -18.92 234.83 -69.47 0 34.86 -340.78zm345.86 0l90.79 0c31.88,0 57.57,9.58 76.9,28.84 19.41,19.26 29.08,44.61 29.08,76.07 0,33.2 -9.83,59.16 -29.41,77.98 -19.58,18.82 -46.75,28.23 -81.45,28.23l-12.55 0 0 129.66 -73.36 0 0 -340.78zm73.36 65.35l0 80.42c16.43,-0.34 28.58,-3.66 36.42,-10.02 7.77,-6.27 11.73,-16.2 11.73,-29.8 0,-14.63 -3.8,-25 -11.39,-31.02 -7.6,-6.09 -19.83,-9.23 -36.76,-9.58zm178.83 -65.35l73.36 0 0 126.34 65.09 0 0 -126.34 73.27 0 0 340.78 -73.27 0 0 -141.68 -65.09 0 0 141.68 -73.36 0 0 -340.78zm279.04 0l75.25 0 0 239.97c0,11.24 2.81,20.12 8.43,26.66 5.7,6.53 13.21,9.85 22.8,9.85 9.83,0 17.59,-3.49 23.29,-10.46 5.78,-7.06 8.59,-16.64 8.59,-28.93l0 -237.09 74.84 0 0 223.58c0,30.5 -3.8,54.9 -11.4,73.28 -7.6,18.39 -18.75,31.9 -33.54,40.43 -14.78,8.63 -35.35,12.9 -61.78,12.9 -39.08,0 -66.58,-10.54 -82.53,-31.63 -16.02,-21.09 -23.95,-56.72 -23.95,-106.91l0 -211.65zm248.72 0l82.27 0c18.26,48.97 31.47,86.78 39.65,113.36l0.99 0c8.26,-27.27 21.32,-65 39.24,-113.36l84.17 0 -86.65 186.55 0 154.23 -74.26 0 0 -154.23 -85.41 -186.55z"/>
    <path id="Lavanderia"  fill-rule="nonzero" stroke="#373435" stroke-width="0.9" stroke-miterlimit="22.9256" d="M752.97 217.5l55.74 0 0 26.43 -84.85 0 0 -135.8 29.11 0 0 109.37zm150.17 -109.37l56.69 135.8 -31.41 0 -12.26 -29.11 -57.65 0 -12.07 29.11 -31.6 0 56.69 -135.8 31.61 0zm2.1 80.25l-17.81 -42.71 -17.81 42.71 35.62 0zm156.49 -80.25l31.6 0 -57.27 135.8 -31.99 0 -57.07 -135.8 31.6 0 41.56 101.51 41.57 -101.51zm107.06 0l56.7 135.8 -31.42 0 -12.25 -29.11 -57.65 0 -12.07 29.11 -31.6 0 56.69 -135.8 31.6 0zm2.11 80.25l-17.81 -42.71 -17.82 42.71 35.63 0zm160.7 -80.25l29.11 0 0 135.8 -27.77 0 -65.12 -88.68 0 88.68 -29.12 0 0 -135.8 27.2 0 65.7 89.26 0 -89.26zm101.99 0c9.83,0 18.54,1.79 26.08,5.36 7.56,3.58 13.85,8.43 18.9,14.56 5.04,6.13 8.9,13.35 11.52,21.65 2.62,8.29 3.93,17.11 3.93,26.43 0,9.45 -1.38,18.29 -4.12,26.52 -2.75,8.24 -6.58,15.42 -11.43,21.55 -4.85,6.13 -10.6,10.95 -17.27,14.46 -6.64,3.51 -13.85,5.27 -21.67,5.27l-60.82 0 0 -135.8 54.88 0zm0.09 109.37c5.49,0 10.19,-1.12 14.08,-3.35 3.9,-2.24 7.12,-5.24 9.67,-9.07 2.56,-3.83 4.44,-8.24 5.65,-13.18 1.22,-4.98 1.82,-10.19 1.82,-15.68 0,-5.49 -0.57,-10.72 -1.72,-15.77 -1.15,-5.04 -3,-9.45 -5.56,-13.28 -2.55,-3.83 -5.8,-6.86 -9.76,-9.16 -3.96,-2.3 -8.69,-3.45 -14.18,-3.45l-25.85 0 0 82.94 25.85 0zm75.85 -109.37l84.85 0 0 26.43 -55.74 0 0 24.52 49.04 0 0 26.43 -49.04 0 0 31.99 55.74 0 0 26.43 -84.85 0 0 -135.8zm200.73 40.42c0,4.34 -0.61,8.46 -1.82,12.35 -1.21,3.89 -2.91,7.47 -5.08,10.72 -2.17,3.26 -4.78,6.13 -7.85,8.62 -3.06,2.49 -6.38,4.51 -9.96,6.04l45.01 57.65 -33.9 0 -41.95 -54.78 -13.02 0 0 54.78 -29.11 0 0 -135.8 58.61 0c5.36,0 10.43,1.06 15.22,3.16 4.79,2.11 8.94,4.98 12.45,8.62 3.51,3.64 6.29,7.92 8.33,12.83 2.05,4.92 3.07,10.19 3.07,15.81zm-42.71 14.17c3.7,0 6.89,-1.37 9.57,-4.12 2.69,-2.74 4.03,-6.1 4.03,-10.05 0,-3.83 -1.34,-7.12 -4.03,-9.87 -2.68,-2.74 -5.87,-4.12 -9.57,-4.12l-25.86 0 0 28.16 25.86 0zm126.02 -54.59l0 24.52 -10.15 0 0 86.95 10.15 0 0 24.33 -49.41 0 0 -24.33 10.15 0 0 -86.95 -10.15 0 0 -24.52 49.41 0zm-1.91 -43.28l-12.07 34.28 -19.53 0 2.68 -34.28 28.92 0zm103.24 43.28l56.69 135.8 -31.41 0 -12.26 -29.11 -57.65 0 -12.07 29.11 -31.6 0 56.69 -135.8 31.61 0zm2.1 80.25l-17.81 -42.71 -17.81 42.71 35.62 0z"/>
    <path id="Logo"  fill-rule="nonzero" stroke="#373435" stroke-width="2.36" stroke-miterlimit="22.9256" d="M309.51 71.67c-50.32,50.79 -117.88,123.94 -117.88,127.67 0,1.4 4.89,2.33 11.18,2.33 14.44,0.24 28.19,3.5 32.85,7.92 5.36,5.59 0.93,10.95 -13.98,17.01 -7.46,3.03 -10.72,5.36 -7.92,5.59 8.85,0.7 13.98,-0.47 29.59,-6.29 8.62,-3.26 16.77,-5.36 18.17,-4.42 1.16,0.69 6.75,-2.34 12.35,-6.76 12.58,-10.25 19.8,-13.05 35.17,-13.05 16.08,0 25.86,6.52 34.48,23.07 5.13,9.55 6.53,15.6 6.53,26.32 0,17.47 -3.03,22.83 -22.14,41l-15.37 14.91 0.7 13.05 0.7 13.28 18.63 1.86c30.06,2.8 35.65,5.83 51.49,27.96 18.87,26.56 32.15,40.3 48.69,49.85 20.5,12.12 107.63,56.62 110.89,56.62 4.43,0 0.94,-41.94 -5.82,-67.56 -17.71,-67.57 -36.11,-100.65 -106.23,-188.71 -18.87,-23.76 -41.24,-52.65 -49.63,-64.07 -24.92,-33.55 -41.23,-70.35 -41.23,-92.49 0,-6.75 -0.94,-11.18 -2.57,-11.18 -1.39,0 -14.44,11.88 -28.65,26.09l0 0zm-17.01 148.87c-6.98,2.1 -38.2,30.05 -33.54,30.05 1.16,0 3.96,1.64 5.82,3.73 3.49,3.26 4.66,2.8 15.14,-4.66 13.98,-10.25 29.59,-17.47 38.21,-17.7 7.22,0 7.92,-2.33 2.33,-7.69 -5.59,-4.66 -18.64,-6.52 -27.96,-3.73l0 0zm-59.64 24.93c-14.21,9.55 -17.94,10.95 -30.75,11.65 -13.28,0.93 -32.15,-3.03 -49.39,-10.25 -1.86,-0.7 -3.03,0.46 -3.03,2.79 0,2.1 -5.36,12.35 -11.88,22.6 -22.37,34.71 -40.31,79.21 -48.69,120.45 -5.13,25.16 -6.76,82.47 -2.33,85.03 2.56,1.63 68.26,-31.45 85.73,-43.33 34.02,-23.07 50.09,-39.84 65.7,-68.73l7.69 -14.21 -4.89 -5.59c-9.56,-10.02 -15.38,-39.6 -11.89,-60.8 2.8,-16.78 6.53,-23.54 16.31,-29.59 4.66,-3.03 6.29,-4.9 4.43,-6.06 -1.63,-0.93 -2.33,-4.43 -1.4,-8.39 0.7,-3.72 0.93,-6.75 0.7,-6.52 -0.23,0 -7.69,4.89 -16.31,10.95l0 0zm-18.4 18.17c2.79,0.93 5.12,3.26 5.12,5.59 0,2.33 1.63,4.66 3.5,5.6 1.86,0.69 3.49,2.79 3.49,4.66 0,8.15 -11.88,29.82 -21.66,39.6 -13.28,13.05 -26.79,17.47 -60.34,19.34 -22.83,1.16 -25.16,0.93 -26.56,-2.8 -3.5,-8.62 21.9,-48.22 37.74,-58.94 14.44,-10.02 44.96,-16.54 58.71,-13.05l0 0zm112.29 -24.93c0,1.4 -6.06,5.6 -13.51,9.32 -23.3,11.65 -27.26,17.01 -30.52,39.84 -3.5,23.76 -6.76,31.22 -18.87,43.1 -10.95,10.72 -11.88,13.75 -2.8,10.02 3.5,-1.4 12.58,-3.73 20.27,-5.13l13.98 -2.79 1.16 -19.11 1.17 -18.87 11.65 -12.11c6.52,-6.53 13.98,-14.45 17,-17.47 3.73,-3.97 5.13,-8.16 5.13,-15.85 0,-5.82 -0.93,-11.18 -2.33,-11.88 -1.17,-0.7 -2.33,-0.23 -2.33,0.93l0 0zm-31.45 221.56c-41.7,3.49 -47.29,6.06 -114.16,48.92 -63.36,40.54 -76.88,50.09 -77.58,55.22 -1.4,10.01 42.87,61.27 71.76,82.93 102.51,76.42 234.6,63.84 312.18,-29.82 20.97,-25.39 44.73,-64.3 41.7,-68.02 -1.4,-1.63 -9.55,-6.76 -17.94,-11.42 -8.62,-4.89 -28.19,-16.31 -43.56,-25.39 -32.62,-19.57 -74.55,-41.24 -89.93,-46.36 -18.64,-6.06 -52.42,-8.62 -82.47,-6.06l0 0z"/>
   </g>
  </g>
 </g>
</svg>
