<?xml version="1.0" standalone="no"?>
<!DOCTYPE svg PUBLIC "-//W3C//DTD SVG 20010904//EN"
 "http://www.w3.org/TR/2001/REC-SVG-20010904/DTD/svg10.dtd">
<svg version="1.0" xmlns="http://www.w3.org/2000/svg"
 width="204.000000pt" height="297.000000pt" viewBox="0 0 204.000000 297.000000"
 preserveAspectRatio="xMidYMid meet">

<g transform="translate(0.000000,297.000000) scale(0.100000,-0.100000)"
 stroke="none">
<path d="M996 2798 c-216 -218 -506 -532 -506 -548 0 -6 21 -10 48 -10 62 -1
121 -15 141 -34 23 -24 4 -47 -60 -73 -32 -13 -46 -23 -34 -24 38 -3 60 2 127
27 37 14 72 23 78 19 5 -3 29 10 53 29 54 44 85 56 151 56 69 0 111 -28 148
-99 22 -41 28 -67 28 -113 0 -75 -13 -98 -95 -176 l-66 -64 3 -56 3 -57 80 -8
c129 -12 153 -25 221 -120 81 -114 138 -173 209 -214 88 -52 462 -243 476
-243 19 0 4 180 -25 290 -76 290 -155 432 -456 810 -81 102 -177 226 -213 275
-107 144 -177 302 -177 397 0 29 -4 48 -11 48 -6 0 -62 -51 -123 -112z"/>
<path d="M923 2159 c-30 -9 -164 -129 -144 -129 5 0 17 -7 25 -16 15 -14 20
-12 65 20 60 44 127 75 164 76 31 0 34 10 10 33 -24 20 -80 28 -120 16z"/>
<path d="M667 2052 c-61 -41 -77 -47 -132 -50 -57 -4 -138 13 -212 44 -8 3
-13 -2 -13 -12 0 -9 -23 -53 -51 -97 -96 -149 -173 -340 -209 -517 -22 -108
-29 -354 -10 -365 11 -7 293 135 368 186 146 99 215 171 282 295 l33 61 -21
24 c-41 43 -66 170 -51 261 12 72 28 101 70 127 20 13 27 21 19 26 -7 4 -10
19 -6 36 3 16 4 29 3 28 -1 0 -33 -21 -70 -47z m-79 -78 c12 -4 22 -14 22 -24
0 -10 7 -20 15 -24 8 -3 15 -12 15 -20 0 -35 -51 -128 -93 -170 -57 -56 -115
-75 -259 -83 -98 -5 -108 -4 -114 12 -15 37 94 207 162 253 62 43 193 71 252
56z"/>
<path d="M1070 2081 c0 -6 -26 -24 -58 -40 -100 -50 -117 -73 -131 -171 -15
-102 -29 -134 -81 -185 -47 -46 -51 -59 -12 -43 15 6 54 16 87 22 l60 12 5 82
5 81 50 52 c28 28 60 62 73 75 16 17 22 35 22 68 0 25 -4 48 -10 51 -5 3 -10
1 -10 -4z"/>
<path d="M935 1130 c-179 -15 -203 -26 -490 -210 -272 -174 -330 -215 -333
-237 -6 -43 184 -263 308 -356 440 -328 1007 -274 1340 128 90 109 192 276
179 292 -6 7 -41 29 -77 49 -37 21 -121 70 -187 109 -140 84 -320 177 -386
199 -80 26 -225 37 -354 26z"/>
</g>
</svg>
